{"title":"Cecilia (1982) .DVDrip-XviD","uid":8802965,"size":1467756544,"categoryP":"video","categoryS":"movies","magnet":"?xt=urn:btih:116b4a9148325bfa47a9c40876ff74888ea63d1e&amp;dn=Cecilia+%281982%29+.DVDrip-XviD&amp;tr=udp%3A%2F%2Ftracker.openbittorrent.com%3A80&amp;tr=udp%3A%2F%2Fopen.demonii.com%3A1337&amp;tr=udp%3A%2F%2Ftracker.coppersurfer.tk%3A6969&amp;tr=udp%3A%2F%2Fexodus.desync.com%3A6969","seeders":0,"leechers":1,"uploader":null,"files":1,"time":1376255989,"description":"\n\nCecilia (1982) DVDrip-XviD\n\n\nCountry:Cuba\nGenre:Drama\nRelease: 1982\nDirector:Humberto Solas\nDuration:2hrs 11min\nStarring:Daisy Granados, Raquel Revuelta, Eslinda Nunez  \nLanguage:spanish\nHarsubs:english\n\nSynopsis:\n\nThe story of Cecilia is a story of the society that dominated 19th-century Cuba, a society divided between whites, blacks, and those who were mixed, the mulattos. (Since the Spanish conquistadors killed off the Indian population in Cuba not long after they took over the island, there are no mestizos, or those of mixed-Indian blood in Cuba as in other Caribbean nations.) At any rate, the drama about the life and loves of Cecilia (Daisy Granados) takes place against the backdrop of graphically violent mistreatment of slaves and the rumors of a slave rebellion after the Cubans hear of slaves turning against their captors in Haiti.\n\nCecilia-1982-Solas-Cuba.\nFormat : AVI\nFormat/Info : Audio Video Interleave\nFile size  : 1.37 GiB\nDuration : 2h 11mn\nOverall bit rate : 1 486 Kbps\nWriting application : VirtualDubMod 1.5.4.1 (build 2178/release)\nWriting library : VirtualDubMod build 2178/release\n\nVideo\nID  : 0\nFormat : MPEG-4 Visual\nFormat profile : Advanced Simple@L5\nFormat settings, BVOP : 1\nFormat settings, QPel  : No\nFormat settings, GMC : No warppoints\nFormat settings, Matrix: Default (H.263)\nMuxing mode : Packed bitstream\nCodec ID : XVID\nCodec ID/Hint  : XviD\nDuration : 2h 11mn\nBit rate : 1 287 Kbps\nWidth: 640 pixels\nHeight : 368 pixels\nDisplay aspect ratio : 1.739\nFrame rate : 23.976 fps\nColor space : YUV\nChroma subsampling : 4:2:0\nBit depth: 8 bits\nScan type : Progressive\nCompression mode: Lossy\nBits/(Pixel*Frame): 0.228\nStream size : 1.18 GiB (87%)\nWriting library : XviD 1.2.0.dev47 (UTC 2006-11-01)\n\nAudio\nID  : 1\nFormat : AC-3\nFormat/Info : Audio Coding 3\nMode extension: CM (complete main)\nFormat settings, Endianness: Big\nCodec ID : 2000\nDuration : 2h 11mn\nBit rate mode: Constant\nBit rate: 192 Kbps\nChannel(s): 2 channels\nChannel positions: Front: L R\nSampling rate : 48.0 KHz\nBit depth: 16 bits\nCompression mode : Lossy\nDelay relative to video : 510ms\nStream size : 181 MiB (13%)\nAlignment  : Split accross interleaves\nInterleave, duration : 83 ms (2.00 video frames)\nInterleave, preload duration: 500 ms\nLanguage:spanish\nHarsubs:english\n\n","torrent":{"xt":"urn:btih:116b4a9148325bfa47a9c40876ff74888ea63d1e","amp;dn":"Cecilia+%281982%29+.DVDrip-XviD","amp;tr":["udp%3A%2F%2Ftracker.openbittorrent.com%3A80","udp%3A%2F%2Fopen.demonii.com%3A1337","udp%3A%2F%2Ftracker.coppersurfer.tk%3A6969","udp%3A%2F%2Fexodus.desync.com%3A6969"],"infoHash":"116b4a9148325bfa47a9c40876ff74888ea63d1e","infoHashBuffer":{"type":"Buffer","data":[17,107,74,145,72,50,91,250,71,169,196,8,118,255,116,136,142,166,61,30]},"announce":[],"urlList":[]}}